<svg xmlns="http://www.w3.org/2000/svg" width="122.747" height="233.546" viewBox="0 0 122.747 233.546">
  <g id="Group_12" data-name="Group 12" transform="translate(-700 -1654.704)" opacity="0.27">
    <path id="Path_24" data-name="Path 24" d="M770.3,1884.213c-3.355-2.147-7.113-2.818-8.053-3.221s-4.429-3.355-5.905-4.563c-.577-.472-1.172-.8-1.693-1.245.02-.291.053-.78.1-1.422a1.576,1.576,0,0,0,.108-1.568c.435-6.32,1.391-19.686,1.839-21.849.59-2.849,1.081-3.243,1.572-5.6s.3-1.376.393-5.209.688-3.046,2.261-6.485,1.179-2.359,1.768-13.07a110.574,110.574,0,0,1,5.6-27.811c1.769-4.521.59-15.036,1.671-15.036s0-2.751-.885-4.913c-1.3-3.19-4.385-5.512-6.078-8.518s-2-5.931-2.3-9.369a26.528,26.528,0,0,0-5.373-13.175c-2.849-3.928-4.691-8.533-6.883-12.864-4.03-7.961-11.793-17.3-11.793-17.3l-.693-4.226-2.952-.393v-1.965c0-.688-1.371-2.457-1.765-3.342a4.5,4.5,0,0,1,.2-3.537c.59-1.18,2.409-4.029,2.409-5.307s-.516-1.474-1.7-1.671a6.266,6.266,0,0,1-1.879-.589,9.349,9.349,0,0,1-.4-1.081c-.1-.393-1.477-.2-1.477-.2s0-1.179-.591-1.081-.1-.688-.1-1.376-.1-2.555-.492-2.555-5.9.787-6.584.59-.59-1.966-1.376-1.769a22.805,22.805,0,0,1-5.7-.491c-2.26-.393-3.243-2.064-8.156,2.162s-5.7,8.451-5.307,13.365,4.717,6.78,5.9,7.567,3.734.393,5.208,1.67,4.619,1.769,4.619,1.769c.393,2.064-1.867,16.8-.786,20.637a68.707,68.707,0,0,0,8.058,16.706c3.636,5.307,7.174,8.845,7.469,10.613s.295,1.573,1.179,2.064.786,0,1.572,1.474.2,1.179,0,2.948-.393,1.081-.786,2.162.688.393.492,2.162-.688,14.544-.688,14.544l1.67.3s.983,2.358,1.966,4.422,4.815,4.914,5.7,6.585-.1,9.237.688,15.919.787,13.955-.294,19.163-2.752,20.735-3.44,24.077-.491,5.011,0,8.746.1,15.428.1,15.428l.531.219a43.576,43.576,0,0,0-.344,5.617c0,.55-.105,1.191-.149,1.818-.068.947,0,1.859.778,2.325a1.567,1.567,0,0,0,1.15.635c.9.072,2.545,0,4.543-.084,2.991.1,6.227.151,6.965.151,1.207,0,15.568,1.208,16.508,1.074S773.655,1886.361,770.3,1884.213Z" fill="#08b3b9"/>
    <path id="Path_25" data-name="Path 25" d="M730.362,1675.292s4.463.822,4.933,5.168-.47,8.926-1.879,7.4a2.029,2.029,0,0,1-.235-2.819,3.648,3.648,0,0,0-.94,3.641c.351,1.052,1.527,2.467,4.7.7,4.5-2.5,7.539-9.474,6.813-11.393C740.815,1670.242,730.362,1675.292,730.362,1675.292Z" fill="#08b3b9"/>
    <path id="Path_26" data-name="Path 26" d="M821.273,1777.344c-1.581-2.373-5.932-3.362-8.3-4.944s-5.339-3.757-5.142-4.548,8.7-2.966,8.7-2.966l-.791-1.186s-5.141,1.977-7.316,2.175-4.548-1.187-5.932-.4-4.944,4.153-4.944,4.944-1.384,2.373-2.373,2.768a27.768,27.768,0,0,1-9.688,3.757c-2.2.379-15.787,4.5-17.036,2.954-3.609-4.457,9.151-9.02,11.792-8.648,2.232.314,4.529.815,6.706.231s4.149-2.725,3.617-4.915c-.228-.937-.87-1.737-1.078-2.679s.35-2.194,1.312-2.109a2.55,2.55,0,0,1,.944.39,7.24,7.24,0,0,0,7.382-.786,15.09,15.09,0,0,0,4.7-6.136,34.25,34.25,0,0,0,3.252-14.518c-.349,3.8-4.643,6.693-8.62,6.514-4.37-.2-8.18-2.919-11.563-5.691a220.425,220.425,0,0,1-24.736-23.927s.2-5.537.4-6.723c.119-.71-.9-7.864-2.071-14.471q.648,2.771,1.3,5.54c.253,1.083.768,2.4,1.878,2.465a1.778,1.778,0,0,0,1.582-1.055,3.361,3.361,0,0,0,.272-.855,1.213,1.213,0,0,1-.94.493c-2.16-.043-1.692-2.361-1.5-3.779,1.328,1.222,3.64.095,4.178-1.518a2.6,2.6,0,0,0-.847-2.936c.393.458.777,1.368-.093,2.819-1.409,2.349-3.054-9.162-.47-10.806s2.114,11.158,6.812,12.685,3.994-4.346,3.524-5.873a1.651,1.651,0,0,0-2.04-.941c.321.061.772.332,1.335,1.176,1.175,1.762-5.05,4.463-4.111-1.879s-3.288-11.158-6.812-12.1-9.4-7.165-5.05-4.229,10.1-.469,11.745-2.7c1.3-1.763.552-2.928.178-3.344-.049.332-.14.828-.3,1.582-.7,3.406-7.869,1.762-3.875.47s4.228-4.933,2.466-9.513-5.755-.235-5.755-.235,4.581-3.406,3.993,2.936-16.208,3.641-27.013-5.755c-8.1-7.04-16.983-3.992-20.931-1.823-.229.1-.443.183-.68.3-2.312,1.1-4.173,3.793-5.629,5.752-1.286,1.731-2.8,2.48-3.663,4.675-1.659,4.2,3.965,8.172,6.437,8.975,0,0,.408-.158-.316-.952-.492-.539-2-1.386-2.6-2.62a7,7,0,0,1-.64-2.119,7.479,7.479,0,0,0,1.6,2.653,11.3,11.3,0,0,0,3.97,2.607c.6.2,1.043,1.993,1.465,2.733s.64,2.305,1,2.351,1.075-.533,1.5-.912.6-.02.625.36.354.94.891.674.828-.243.626.136.109.783.6.874.516-.423.962-.2.845,1.255,2.143.947,2.047-3.637,2.362-4.351a3.075,3.075,0,0,1,2.69-2c2.711-.33,4.292,5.551,4.175,8.84a.337.337,0,0,0,.009.078,42.033,42.033,0,0,1-1.288,4.48c-.791,2.176-19.773,20.169-21.553,21.553s-1.977,6.13-1.977,7.316.593,2.769,1.581,2.967a10.637,10.637,0,0,1,2.571,1.186l.4,2.57,1.581,2.373s16.017,5.734,16.61,5.932,14.434,50.225,15.028,53.388,1.779,10.282,4.548,10.48,8.7-1.384,8.7-1.384,14.632,3.757,17.994,4.35,10.479,1.978,14.632,4.746,10.282,6.327,11.468,7.514,1.187,2.768.989,5.141-.989,5.734.2,6.13,5.339-5.933,6.13-9.294-1.187-6.13-3.56-8.107-1.779-7.712-1.779-7.712a18.187,18.187,0,0,1,5.339.791,22.888,22.888,0,0,1,2.966,1.384l.4-1.186s-7.316-2.571-8.5-3.164-3.362-2.966-6.723-1.582l-3.362,1.385a16.959,16.959,0,0,1-4.746-.4c-2.768-.593-16.411-7.118-16.411-7.118s9.688-5.735,16.609-7.119,9.1-1.977,15.028-.791l5.932,1.187a23.839,23.839,0,0,1,2.175,4.152,10.834,10.834,0,0,0,2.175,3.955c.791.791,1.78.593,1.977-1.187S822.855,1779.716,821.273,1777.344Zm-47.145-84.671a.641.641,0,0,0-.544.119A4.183,4.183,0,0,1,774.128,1692.673Zm-2.893-23.253a2.322,2.322,0,0,1,.178.179C771.588,1668.433,771.235,1669.42,771.235,1669.42Zm-5.285,25.016c.034.035.22.158.445.353C766.151,1694.5,765.905,1694.392,765.95,1694.436Zm-.3,6.993a9.471,9.471,0,0,1-.146,1.1A.952.952,0,0,0,765.65,1701.429Z" fill="#08b3b9"/>
  </g>
</svg>
