<svg xmlns="http://www.w3.org/2000/svg" width="166.868" height="191.178" viewBox="0 0 166.868 191.178">
  <g id="Group_11" data-name="Group 11" transform="translate(-406.219 -1564.169)" opacity="0.1">
    <path id="Path_22" data-name="Path 22" d="M572.938,1741.771a8.237,8.237,0,0,1-.841-2.411,4.746,4.746,0,0,0-.785-2.018c-.393-.729.168-.336-.561-2.579s.505-2.186-.28-2.242-2.411-.225-2.579-.953,2.467,2.634-.448-9.026-3.2-11.325-4.2-15.137-.393-2.579-2.8-6.167-3.027-7.512-3.7-9.474a14.272,14.272,0,0,0-2.523-4.373c-.841-1.065-.336.617-1.233-3.364s-3.084-13.343-3.42-15.473a15.8,15.8,0,0,0-.307-2.293,8.18,8.18,0,0,0-.738-1.48c-.327-.6-.152-1.132-.225-1.8a5.434,5.434,0,0,0-.577-1.6,19.915,19.915,0,0,1-1.088-3.543c-.54-2.249-1.08-4.5-1.723-6.721q-.507-1.752-1.1-3.477a9.548,9.548,0,0,1-.857-2.972c0-1.682-.169-6.9-.169-6.9s2.579-.392,3.532-1.289,2.523-4.317,3.308-9.306,2.242-12.558,2.186-14.24.112-1.906.225-4.205.84-8.633-.673-10.371-1.458-1.57-2.411-2.13-7.232-2.131-7.736-2.916-3.42-4.709-3.42-4.709-1.645.286-1.86.311c0,0-1.431-.238-.477-5.248s2.147-12.883-2.147-16.462-8.35-3.579-11.213-2.147-7.4,3.34-7.4,5.487.954,4.294.716,6.2a19.786,19.786,0,0,0,.064,4.4c.056.673,1.29.617,1.29,1.009s-1.065,4.261-1.178,5.046,1.963.728,1.963.728-.225,1.178.336,1.514l.561.337s-.281,1.233.28,1.457.561.112.448,1.682,1.29,1.85,2.131,1.682,3.251-1.121,3.419-1.065.673.672.673.672-.084.653-.214,1.428c-.756.292-1.58.591-1.58.591a33.057,33.057,0,0,1-.616,4.709,18.7,18.7,0,0,0-.838,1.672,25.113,25.113,0,0,0-3.759,7.242c-1.01,3.419-1.57,9.979-1.57,15.641s-5.943,70.413-3.532,79.271,8.521,13.567,8.858,15.361-.112,6.9,1.682,11.1,2.186,6,3.2,6.167,1.121.392.841,1.065a5.491,5.491,0,0,1-1.289,2.243,10.991,10.991,0,0,1-4.99,2.691c-2.018.28-6.335.168-5.382,2.747s10.876,3.251,12.5,2.522,4.965-2.578,5.694-2.747,1.6-.168,1.6,0V1747h3.973a11.3,11.3,0,0,0,2.579-.372l-.224-2.877.729-.766a32.931,32.931,0,0,0,.112-4.475c-.168-1.122-1.346-1.621-1.065-2.967s.728-1.455-.056-2.128c-.438-.375-1.057-.343-1.265-.933-.319-.907.2-2.1.04-3.065a10.862,10.862,0,0,0-.387-1.311,15.046,15.046,0,0,1-.39-2.07,29.558,29.558,0,0,0-1.957-6.95,7.837,7.837,0,0,1-.558-1.6,14.058,14.058,0,0,1,.007-2.554c.005-2.737-1.546-5.137-2.122-7.751-.472-2.145-.142-4.029-1.441-5.94-.953-1.4-1.626-1.457-2.018-2.3-.1-.222-.163-.226-.181-.217.045-.048.33-.525.853-4.156.841-5.83,1.233-9.137,1.234-9.138-.056.469.775,1.613.971,2.022q1.206,2.517,2.4,5.039c.487,1.025,1,2.043,1.458,3.082.32.725.4,1.5.67,2.25.724,1.992,1.052,4.089,1.62,6.125a17.816,17.816,0,0,0,.735,2.154c.922,2.179,2.411,4.076,3.388,6.231.346.761.626,1.552.97,2.315,1.029,2.286,2.6,4.275,3.678,6.535,1.018,2.131,1.894,4.333,2.943,6.461,1.962,3.981,2.467,3.028,2.635,4.6.106.988-.543,2.123-.026,3.051.416.747,1.8,1.416,1.623,2.4a5.706,5.706,0,0,1-.22.591c-.244.813.594,1.606,1.435,1.718a1.256,1.256,0,0,1,.457.1c.376.208.337.755.529,1.139.075.148.187.274.273.416a2.778,2.778,0,0,1,.286.831l.455,2.008,1.066-.261c.015,0-.148,2.745-.16,2.967-.055,1.121-1.065,3.307-1.177,4.6s-.392,2.747,1.4,3.139,8.521-1.85,9.867-3.364.953-3.924.953-5.381.841-1.458.841-1.458A8.481,8.481,0,0,0,572.938,1741.771Z" fill="#08b3b9"/>
    <path id="Path_23" data-name="Path 23" d="M488.316,1635.995c.083.095.211.236.3.145a.662.662,0,0,0-.868-.289c-.022.011-.035.034-.056.047A.55.55,0,0,1,488.316,1635.995Zm4.9,6.536c.089.09.224.223.306.127a.663.663,0,0,0-.883-.239c-.021.012-.034.036-.053.05A.548.548,0,0,1,493.216,1642.531Zm-.63-.062a.644.644,0,0,0-.212.159.893.893,0,0,0-.186.431,1.785,1.785,0,0,1,.186-.389A1.091,1.091,0,0,1,492.586,1642.469Zm-4.9-6.571a.625.625,0,0,0-.22.147.889.889,0,0,0-.21.42,1.782,1.782,0,0,1,.208-.378A1.059,1.059,0,0,1,487.69,1635.9Zm41.425,63.917c-.881-5.644-7.361-41.973-6.708-45.237s.815-11.257,1.3-13.215,1.142-3.753,1.142-3.753,1.468,1.142,2.447.49,6.527-7.342,7.995-10.116,3.916-7.995,5.058-9.953,1.631-1.468,1.795-3.1.163-2.773.326-4.894.326-8.484.163-9.137-4.568,1.3-5.547,3.753-2.121,5.547-1.632,7.178a13.205,13.205,0,0,1,.327,3.916s-3.916,6.037-5.222,7.669a32.954,32.954,0,0,1-4.242,3.915s-.815.49-1.142-.326a10.406,10.406,0,0,1-.326-5.221c.489-1.8-4.568-9.463-5.71-10.605s-4.569-4.079-4.732-6.69a13.131,13.131,0,0,1,1.631-6.526c.653-1.142,4.487-2.039,4.732-2.488a2.515,2.515,0,0,0-.285-2.121c-.408-.53-.572-.734-.49-1.1s-.082-.612-.245-.612-.611-1.224-.611-1.224.2,0,.2-.408-.244-.448-.2-.652.081-.408.081-.408.979-.734,1.02-1.02a1.159,1.159,0,0,0-.49-.856c-.2-.123-2.243-1.469-2.61-1.632a1.968,1.968,0,0,1-.9-1.02,5.867,5.867,0,0,0-.489-1.509c-.245-.367-1.387-1.387-1.795-1.835a19.407,19.407,0,0,0-2.488-2.2s.163-2.284-2.937-1.958-7.015-.326-9.463,2.61c-.813.976-1.624,1.961-2.335,2.954-2.982,3.651-6.421,8.94-6.685,11.576-.4,4.044,2.831,8.9.809,13.345s-4.246,1.618-5.257,5.864c-.48,2.015,1.862,3.755,4,5.375a6.278,6.278,0,0,0-.379,1.349c-.3,1.651.973,2.843,2.386,3.986-4.181,3.177-8.776,6.513-5.606,8.3.837.471,1.839.724,2.634,1.256.653.437.584,1.237.517,1.936-.063.67-.089,3.212-1.386,2.44a1.258,1.258,0,0,1-.537-.963,1.491,1.491,0,0,1,.021-.476,1.933,1.933,0,0,0,3.036,2.323c.024-.024.04-.054.063-.078a1.822,1.822,0,0,0,.348.233c.862.423,1.875.62,2.7,1.106.678.4.653,1.2.626,1.9-.025.674.092,3.212-1.247,2.515a1.258,1.258,0,0,1-.589-.932,1.463,1.463,0,0,1-.007-.476,1.933,1.933,0,0,0,3.162,2.148,3.435,3.435,0,0,0,.754-1.994,7.612,7.612,0,0,0-.255-2.817,7.73,7.73,0,0,0-.771-1.587c-.429-.829-.364-1.413.383-1.917,1.726,2.408,5.473,7.1,5.9,7.244.49.164-1.794,1.632-3.1,4.569s-1.794,9.952-4.242,15.173-21.756,28.775-45.483,48.472c-11.1,9.214-34.619,26.974-41.634,30.89s42.413,10.374,45.841,9.4c4.36-1.247,4.327-2.812,7.869-.739.26.152.171,1.91.781,2.405.808.656,2.389.6,3.35.839,1.9.463,4.24.027,6.156-.13a147.591,147.591,0,0,1,24.6.038c2.81.239,6.206.3,7.772-2.046.546-.818.8-1.865,1.582-2.461a3.894,3.894,0,0,1,1.721-.615c3.31-.585,5.215-.533,7.111.882.933.7-1.358,2.722,1.789,2.6,4.4-.163,21.621.05,25.732-.324,9.849-.9,16.116-3.5,16.116-4.477S531.354,1714.141,529.115,1699.815Zm-36.4-69.547a4.714,4.714,0,0,0-.241,1.784,20.305,20.305,0,0,0-1.408,1.955,7.738,7.738,0,0,0-.679-1.623c-.409-.913-.3-1.52.641-2a8.9,8.9,0,0,1,1.456-.543,3.688,3.688,0,0,0,.444-.171C492.842,1629.889,492.768,1630.093,492.712,1630.268Zm11.851,9.545s-2.347-4.231-3.4-6.075a1.744,1.744,0,0,1,.141-.121,7.719,7.719,0,0,1,1.2-.587,2.36,2.36,0,0,0,1.219-1.017,20.594,20.594,0,0,1,1.127,5.006C504.749,1638.37,504.563,1639.813,504.563,1639.813Z" fill="#08b3b9"/>
  </g>
</svg>
