<svg xmlns="http://www.w3.org/2000/svg" width="149.252" height="172.38" viewBox="0 0 149.252 172.38">
  <g id="Group_9" data-name="Group 9" transform="translate(-21.027 -1853.905)" opacity="0.27">
    <path id="Path_17" data-name="Path 17" d="M95.725,1920.24c0-2.307-.769-2.637-.769-2.637a48.783,48.783,0,0,0-5.218-1.153c-2.527-.385-10.161-1.758-13.017-2.032s-3.076-.769-3.845-1.209-.494-.714-.549-2.252a69.694,69.694,0,0,1,1.373-9.831c.549-2.472-.439-3.021-1.867-4.559-2.279-2.454-4.04-5.609-5.811-8.43a62.351,62.351,0,0,0-3.984-6.076c.035-.1.071-.2.1-.3.686-2.138,1.29-3.027,2.575-3.9a2.649,2.649,0,0,1,2.88-.221c.609.286,2.979,2.023,4,1.49s.694-1.429.857-1.828.469-.078.737-.415.241-.776-.1-.908-.171-.311.329-.442.4-.683.2-.942-.288-.592.2-.587,1.284-.026,1.49-.258-.538-1.372-.682-2.091-.87-2.131-.594-2.6a9.734,9.734,0,0,0,1.1-3.94,6.435,6.435,0,0,0-.459-2.632,6.033,6.033,0,0,1,.784,1.739c.768,2.816.128,3.968.128,3.968,1.152-1.92,2.56-7.68-.9-9.472a5.938,5.938,0,0,0-4.038-.864,4.824,4.824,0,0,1-.523-.045c-.814-.121-.95-.64-1.42-1.229-4.913-6.154-15.655-.38-19.909,4.087a21.761,21.761,0,0,0-5.877,16.213c.18,2.756,2.082,7.691.214,10.1-.732.943-1.841,1.628-2.919.921-.758-.5-1.451-1.963-.95-2.821.829-1.418-5.517,5.531,1.1,7.879a6.187,6.187,0,0,0,6.359-1.334,33.253,33.253,0,0,1-1.259,4.887c-.659,1.593-3.845,11.37-4.943,13.676a86.409,86.409,0,0,0-3.68,11.37c-.769,3.076-2.692,12.3-3.351,12.632s-5.6,3.845-7.524,5.218-4.944,5.658-4.944,5.658a3.948,3.948,0,0,0,2.582-.66,53.731,53.731,0,0,1,7.744-3.9c1.373-.495,1.428.11.879,1.1a23.633,23.633,0,0,1-2.472,2.911c-.11.165.55.989,1.044.714s3.68-3.46,4.614-4.394,2.306-2.252,2.2-3.405.6-3.3.768-5.108,4.23-9.886,5.053-11.644a72.792,72.792,0,0,0,3.131-8.294c.44-1.757,4.01-7.25,4.01-7.25s1.153,4.394,2.032,6.536a20.284,20.284,0,0,1,1.044,5.438c.069,1.383-1.876,3.838-2.48,4.943-3.748,6.865-7.373,13.724-11.115,20.612a49.544,49.544,0,0,1-6.546,9.864,19.22,19.22,0,0,1-9.931,6.14c.717.369,1.505-.357,2.305-.463,1.61-.214,2.338,1.869,3.107,3.3a6.394,6.394,0,0,0,8.446,2.442c1.559-.882,3.31-2.492,4.827-1.539,1.223.769,1.165,2.716,2.323,3.58,3.049,2.273,6.433-3.348,6.544,2.576.046,2.434.566,6.036-.336,8.358-.385.989-2.692,8.4-2.8,13.456s1.648,10.326,1.813,11.425.274,7.2.165,8.238a5.413,5.413,0,0,1-1.154,2.527c-.384.494-2.942,3.57-2.887,5.053A7.366,7.366,0,0,0,47,2020.7v5.3h2v-4.04s1.667-.534,2.436.18a45.127,45.127,0,0,1,2.985,3.86h11.37l-.385-1-4.394-1.518a14.168,14.168,0,0,0-.659-2.544c-.494-1.373-.933-2.645-1.7-5.336s-.385-10.55-.165-12.912,1.1-16.425,1.1-18.182,1.813-5.439,2.856-7.691c1.124-2.424.949-11.622,4.735-10.892,1.668.321,2.8,1.874,3.543,3.4-.461-.9.582-1.943,1.588-1.962a6.972,6.972,0,0,1,2.825.976,8.528,8.528,0,0,0,6.267.234,2.159,2.159,0,0,0,1.082-.7c.564-.8.03-1.869-.366-2.761s-.453-2.245.478-2.538c.6-.19,1.207.231,1.766.528s1.4.407,1.7-.15a1.371,1.371,0,0,0,.052-.879,67.805,67.805,0,0,0-3.757-12.409q-3.167-8.461-6.332-16.925c-.972-2.6-2.38-5.343-2.924-8.06-.164-.819-.717-3.243-.438-4.054.005-.014.1-.228,1.318-.493,1.263-.275,7.195-.33,9.007-.659s3.3-.055,3.46.6,1.648.879,2.747,1.812,6.316,3.515,6.536,3.241S95.725,1922.546,95.725,1920.24Z" fill="#08b3b9"/>
    <path id="Path_18" data-name="Path 18" d="M170.2,2019.056c0-.97-2.91-14.011-3.449-16.6s-1.724-2.911-1.724-2.911a21.661,21.661,0,0,0-3.665,1.078c-1.077.539-3.125.647-3.772,1.725s0,.431-.539,1.509-1.616.538-2.155.538-3.341.108-4.958.108-2.694,1.725-3.772,2.479-2.371-.323-7.975.754-10.778,3.988-10.885,3.557,1.94-5.82,2.8-10.239,4.85-8.837,6.035-14.226.647-7.113-.323-10.346-2.156-3.665-3.341-5.6-.862-3.233-2.156-6.682-.107-3.125-.323-5.6.108-.862.431-2.479.755-.754.216-2.155-.431-1.293-.324-3.557.216-2.479.324-3.556,1.293-1.4,1.293-3.341-.323-3.126-.862-7.545-5.173-9.591-6.251-10.885a3.25,3.25,0,0,1-.862-2.479s.349-1.54.483-2.3a18.125,18.125,0,0,1,1.752-1.364c3.735-2.676,9.4-7.07,8.825-12.072a11.87,11.87,0,0,0-1.521-4.772,10.066,10.066,0,0,0-4.855-5.048c-4.354-2.177-8.875-1.34-9.545,1.005a1.417,1.417,0,0,0,.283,1.384,10.291,10.291,0,0,1-1.961,2.543,17.761,17.761,0,0,0-2.69,2.91c-.382.473.458,1.2.214,1.459s-3.341,2.117-3.9,2.56.827,1.694.827,1.694-.877.628-.72,1.2l.157.567s-.949.631-.723,1.125.3.422-.752,1.376a1.456,1.456,0,0,0,.345,2.42c.063.04.131.078.2.115.791.4,2.061.641,2.55,1.327a2.711,2.711,0,0,1,.36,1.386c-1.638.068-2.8.121-2.8.121a5.9,5.9,0,0,1,1.4,1.832c.215.755-.323,1.078-.216,1.617a14.674,14.674,0,0,0,.755,1.94l-.539.647s-2.587.862-2.91,2.155.323,1.294-.216,2.156-.538,1.94-.754,3.664-1.078,1.185-2.694,2.694-.863,1.294-1.4,2.587-1.94.431-3.449.216-1.833-.647-3.341-2.264-.97-4.742-1.078-7.759a18.307,18.307,0,0,1,.754-6.575c.539-1.724.324-2.371-.538-4.2s-4.85-1.293-6.251-.754-1.294-.108-1.617,1.832-.108.431-.97,1.4,0,1.4-.431,1.724-.431-.215-.755,1.078,1.833,3.988,2.695,4.634a5.054,5.054,0,0,1,1.724,3.126c.108,1.078-.215,11.532-.215,13.148a14.994,14.994,0,0,0,1.4,4.958c.646,1.724,5.5,3.88,7,3.449a37.824,37.824,0,0,1,5.389-.647,94.794,94.794,0,0,0,1.078,9.808c.646,2.91,1.94,7.975,1.94,7.975s-2.371.108-6.144,0a52.378,52.378,0,0,0-20.8,4.85c-7.329,3.664-3.341,9.592-1.617,12.609s2.156,4.743,3.88,8.515,1.509,3.341,2.156,7.113,2.478,4.311,3.341,5.6a11.891,11.891,0,0,1,1.616,3.341c.431,1.293-.215.97.431,1.509s.755.216,1.186.862-.539.755-1.724,1.724a47.85,47.85,0,0,1-4.743,3.665,26.232,26.232,0,0,0-6.466,2.586c-2.694,1.725.539,3.126,1.293,3.234s12.287-.863,13.257-.863,7.328-.107,9.376-.323,1.293-2.263,1.293-3.556a17.944,17.944,0,0,0-.539-4.958c-.431-.97-.539-.754-.539-1.724s-.646-1.294-1.724-1.94.108-.863.647-2.587-.539-.97-2.264-3.233-.539-1.4-1.185-4.311-.862-1.186-1.186-3.449-1.077-1.724-1.94-4.742-2.155-7-2.155-7,9.807,2.371,13.148,2.8a53.7,53.7,0,0,0,6.144.431s.107,25-.324,28.345,3.126,6.574,7.006,6.358,20.154-3.772,22.093-4.742,3.88-2.048,6.144-3.125,4.526-.647,5.819-1.832,1.725-.647,2.91-1.078,3.665,1.185,5.5,2.586a5.263,5.263,0,0,1,1.293,6.144c-.862,2.047,4.85.323,6.575-.97S170.2,2020.026,170.2,2019.056Z" fill="#08b3b9"/>
  </g>
</svg>
