<svg xmlns="http://www.w3.org/2000/svg" width="141.458" height="178.236" viewBox="0 0 141.458 178.236">
  <g id="Group_13" data-name="Group 13" transform="translate(-794.542 -1845.514)" opacity="0.27">
    <path id="Path_27" data-name="Path 27" d="M868.107,1944.48a1.536,1.536,0,0,0-1.732-.412c-1.027.44-1.4,1.926-2.492,2.15-.414.084-.941,0-1.173.354-.105.16-.11.37-.215.53-.27.416-.9.219-1.382.1a2.809,2.809,0,0,0-3.245,1.947c-.067.256-.126.562-.366.673a1.61,1.61,0,0,1-.561.037c-.572.042-.9.7-.9,1.278s.2,1.141.137,1.712a.872.872,0,0,1-.327.657,1.085,1.085,0,0,1-.531.132q-1.449.1-2.9.065c-.373-.01-.828.018-1,.351-.178.348.1.748.361,1.04l1.6,1.8a.961.961,0,0,1,.251.4c.11.47-.455.774-.813,1.1a1.687,1.687,0,0,0,.095,2.479c.295.227.7.385.809.74.164.511-.393,1-.376,1.533.015.5.5.838.964,1.027a2.606,2.606,0,0,1,1.264.747c.248.36.247.84.459,1.222s.871.566,1.035.161q-.024,1.4-.049,2.8l1.946-1.225a.749.749,0,0,1,1.11.091,4.74,4.74,0,0,1,1.642,1.967,1.139,1.139,0,0,0,.352.65c.358.23.829-.145.946-.553s.044-.856.176-1.26a6.4,6.4,0,0,0,4.891-.715,1.861,1.861,0,0,0,.825,1.534,5.5,5.5,0,0,0,1.654.729.313.313,0,0,0,.266,0,.3.3,0,0,0,.1-.192,9.517,9.517,0,0,0,.248-2.638c-.039-.829-.1-1.85.612-2.28l-.522-.3c.349-.268.844-.148,1.282-.188a1.731,1.731,0,0,0,1.521-1.683c-.008-.692-.373-1.563.2-1.96.111-.077.25-.125.323-.239.158-.25-.118-.539-.339-.737-.541-.483-.886-1.36-.425-1.92.359-.436,1-.453,1.557-.561a3.815,3.815,0,0,0,2.706-2.16,2.725,2.725,0,0,1-1.613.033,1.409,1.409,0,0,1-.987-1.185c-.038-.79.76-1.486.592-2.26a2.416,2.416,0,0,0-1.527.341c-.493.2-1.146.3-1.486-.114-.362-.436-.148-1.206-.595-1.555a1.03,1.03,0,0,0-1.066.024,3.066,3.066,0,0,1-1.032.43,1.046,1.046,0,0,1-1.077-.8c-.162-.791.623-1.642.244-2.355-.324-.609-1.087-.722-1.209-1.477S868.7,1945.179,868.107,1944.48Z" fill="#08b3b9"/>
    <path id="Path_28" data-name="Path 28" d="M862.089,1859s1.615.2,2.423.2,1.11.505,1.009.808.707-.707,1.211-.4.808.505.707.909,1.615-.4,1.817.1a4.959,4.959,0,0,1-.909,2.826c-.3.1-5.45,1.716-5.45,1.716Z" fill="#08b3b9"/>
    <path id="Path_29" data-name="Path 29" d="M933.271,2006.582c-.454-2.815-4.27-6.054.514-8.235a4.348,4.348,0,0,0,1.89-1.064,2.872,2.872,0,0,0,.231-2.144c-1.2-7.58-3.486-14.65-5.768-21.937-1.595-5.095-1.3-10.756-3.954-15.589-4.542-8.277-27.354-45.321-33.511-49.661l-2.786-1.962a48.393,48.393,0,0,0-6.5-4.5c-4.139-2.423-14.636-6.157-16.15-7.873a8.9,8.9,0,0,0-7.369-2.927c-3.128.3-14.07-2.222-15.059-2.726,0,0-1.3-3.392-.522-4.7s2.561-2.773,3.065-3.883.1-2.524-.5-2.574-1.212.2-1.363-.2,0-.959-.353-1.06-.858.2-.959-.1,0-1.009-.252-.908-.959.3-.959-.1a18.353,18.353,0,0,0,.353-2.221c-.1-.353-3.533.253-3.987.3s-1.11.151-1.312-.05-.505-1.313-.808-1.666a10.433,10.433,0,0,0-2.927-.959c-.2,0-.1-.454-1.262-.757s-4.895-.252-6.106.858-5.35,3.735-5.7,5.753-1.161,4.543-1.161,5.35,1.867,4.492.757,6.309-7.267,11.91-8.68,19.178-7.672,27.858-11,42.393-3.936,22.307-5.955,25.638,1.211,4.643,4.441,4.845,5.249-1.514,3.634,2.725-3.734,7.974-2.624,9.488,10.7,8.378,14.938,6.965,2.826-1.009,7.571-.505,7.974,1.313,5.854-8.377-4.34-52.487-4.643-62.48-1.312-18.774-.4-23.821-.908-7.671,1.11-6.258,3.23,2.119,4.341,1.816,3.532,1.111,3.936,2.322a15.129,15.129,0,0,0,2.725,5.451c1.615,1.816,9.085,4.441,10.9,6.056s6.762,6.056,6.863,7.57,6.359,18.673,8.984,25.638,3.936,9.791,3.936,9.791,1.692,1.914,1.691,1.922c-1.929,16.9-4.481,32.981-17.4,45.352-6.264,6-13.973,10.378-19.986,16.63-.624.649-1.27,1.576-.848,2.372a1.979,1.979,0,0,0,1.1.809c4.655,1.815,9.793-.61,14.782-.864,3.907-.2,7.739.954,11.606,1.547,4.505.691,7.184-.7,11.329-1.592,4.434-.951,9.621-.321,14.177-.769,13.323-1.312,14.737-.4,23.619-.4s9.69.3,12.617-3.836,1.918-1.514,8.075-4.845c3.092-1.672,5.542-1.236,5.811-4.828A3.029,3.029,0,0,0,933.271,2006.582ZM868.9,1953.526a74.315,74.315,0,0,1-1.658-7.824c-.1-2.119-5.047-20.389-5.754-22.307s-3.936-8.579-2.725-8.983,10.094.5,11.2,1.312,2.722,3.528,2.725,7.558a20.919,20.919,0,0,0-.908,4.05C871.329,1930.931,870.021,1943.4,868.9,1953.526Z" fill="#08b3b9"/>
    <path id="Path_30" data-name="Path 30" d="M912.86,1919.862c-1.817-3.129-4.138-10.5-5.349-16.25s-6.057-11.406-6.057-11.406a28.827,28.827,0,0,0,2.928-3.23c1.009-1.413,0-3.533-1.313-5.148a22.939,22.939,0,0,1-3.431-5.552c-1.212-2.624-.2-2.321-.909-4.239s-3.936-2.725-7.57-7.267-6.763-6.056-8.782-6.763-6.258.2-11.3,1.716c-1.643.493-3.24.953-4.652,1.35a2.64,2.64,0,0,0-1-2.126c-.439-.308-2.089-.153-2.114-.18a14.185,14.185,0,0,1-3-5.25c-.607-2.635-1.636-9.581-10.886-10,0,0-3.78.775-5.518,2.4s-4.107,4.284-4.339,7.252.5,3.434,1.057,3.867.922,2.542,1.107,3.169.135,1.325.832,1.375,1.145-.168,1.469.931.581,3.41.776,3.779,1.048.372,1.6.21.364-.789.808-.153.222,1.043.661,1.084a3.564,3.564,0,0,0,1.066-.144l.453.377s-.332.61-.137.979.691-.545,1,.216a7.917,7.917,0,0,0,.922,2.542c.717.982,2.562.011,3.4-.918a6.533,6.533,0,0,1,1.478-1.284l-1.531,1.936a16.357,16.357,0,0,1,.4,4.037,7.52,7.52,0,0,1-1.817,3.23,6.633,6.633,0,0,0-1.615,3.129c-.4,1.615-.4,2.826-1.514,4.643a2.42,2.42,0,0,0,.1,3.028s13.222,4.442,23.013,11.911,10.9,31.29,10.8,30.887,26.749,31.189,26.749,31.189,3.532-25.941,3.532-26.244-.1-2.624-.2-4.34,1.716-2.725,3.532-4.239S914.677,1922.992,912.86,1919.862Z" fill="#08b3b9"/>
  </g>
</svg>
