<svg xmlns="http://www.w3.org/2000/svg" width="43.298" height="38.411" viewBox="0 0 43.298 38.411">
  <path id="Path_31" data-name="Path 31" d="M885.594,1746.533a5.278,5.278,0,0,1,2.291,9.38,4.389,4.389,0,0,0-1.8-6.968,5.042,5.042,0,0,0-3.558,9.356,6.794,6.794,0,0,0,9.211-9.308,9.13,9.13,0,0,0-17.007,2.193,12.548,12.548,0,0,0,18.079,14.278q-3.891,4.947-14.278,10.282-24.218-13.475-21.637-28.068a12.159,12.159,0,0,1,19.3-7.9q-3.581,1.8-5.092,7.407,11.387-15.43,23.561-6.7a13.249,13.249,0,0,1,1.755,19.59,13.844,13.844,0,0,1-15.3,2.241,8.419,8.419,0,0,1,4.483-15.788" transform="translate(-856.644 -1737.335)" fill="#08b3b9" fill-rule="evenodd"/>
</svg>
