<svg xmlns="http://www.w3.org/2000/svg" width="157.453" height="221.44" viewBox="0 0 157.453 221.44">
  <g id="Group_10" data-name="Group 10" transform="translate(-184.527 -1664.881)" opacity="0.27">
    <path id="Path_19" data-name="Path 19" d="M294.349,1664.936s-4.477-.381-6.954.857-6,3.429-7.239,6.668-.571,4-.1,4.667.19,3.144.19,3.906-.286,1.524.477,1.809,1.333.191,1.333,1.524-.476,4-.381,4.477,1.048.762,1.715.762.666-.762.952.1-.095,1.238.381,1.428a4.124,4.124,0,0,0,1.238.191l.381.571s-.571.572-.476,1.048.953-.381,1.048.572-.286,1.81.19,3.143,2.858.857,4.1.095a7.64,7.64,0,0,1,2.1-.952l-.031,1.524-1.27.285v2.287s-4.636,4-5.3,4.667-2.223.381-2.6,1.619a10.75,10.75,0,0,0-.682,7.049c.762,4.381,2.754,10.287,2.563,12.478s-6.29,39.72-6.29,39.72l4,.286a53.492,53.492,0,0,0,3.524-4.953c.952-1.715,1.142-2.477,2.381-3.429a7.174,7.174,0,0,0,1.809-2s-.572,13.622-.572,13.907a14.973,14.973,0,0,1-.285,1.524l1.9.667a47.264,47.264,0,0,0,2,13.431c2.1,6.381,3.81,11.144,4.1,12.478s.666,6.572,2.286,10.573,4.762,16.954,4.858,19.812.381,12.764.381,14.955a22.2,22.2,0,0,1-1.143,5.62c-.286,1.143-2.382,3.619-3.048,4.286s-4.858,3.238-5.716,3.238-5.81-.285-7.524.286-.191,4.572.666,4.668,12.859.952,16.384,0,5.111-.019,7.206.077,5.62.661,6.034-1.03a17.658,17.658,0,0,0,0-4.1,23.755,23.755,0,0,1-.191-2.953l.762-.666s-.571-17.908-.476-21.432-.857-20-.857-20,2.572,16.288,2.667,20.574,2.857,15.622,3.048,17.241-1.048,6.572-1.048,8.1-.952,7.715-.952,7.715l1.9.667s-3.239,6.572-4,8.1-3.143,5.048-3.429,6.1c-.13.477-.277,1.214-.4,1.874a1.677,1.677,0,0,0,1.158,1.906l2.574.792s8.572-.666,9.811-1.905a16.487,16.487,0,0,0,3.334-5.143c.571-1.62,3.428-4.858,3.428-4.858l.1-6.668.381-1.143s-.1-19.908.286-23.146-.381-16.288-.381-18a42.039,42.039,0,0,0-1.429-8.287c-.667-2.286-3.429-19.622-3.143-23.337a164.548,164.548,0,0,0-.381-16.955,69.568,69.568,0,0,0-1.334-7.62,25.6,25.6,0,0,0,5.62-1.143c1.714-.762,2.191-1.047,2.191-1.047s-2-12.764-3.239-16.765a41.672,41.672,0,0,0-2-5.524s5.429-5.144,6.667-6.382,3.525-2.858,1.715-8.192-7.43-20.67-8.192-23.813-2-5.906-3.334-7.335-4.286-2.285-8.477-2.857-9.335-1.334-10.1-2.1-3.524-2.953-3.524-2.953l-.953-1.905-1.9-.095a16.559,16.559,0,0,1-1.619-6.858C303.4,1676.557,304.541,1668.46,294.349,1664.936Z" fill="#08b3b9"/>
    <path id="Path_20" data-name="Path 20" d="M259.671,1679.045s-.992-2.149-6.612,2.479-10.743,16.693-15.7,43.8-11.186,70.859-21.652,97.184c-16.032,40.328-27.1,49.749-27.436,51.567s25.122-22.809,36.361-44.46,24.131-88.094,25.123-104.291S246.118,1687.309,259.671,1679.045Z" fill="#08b3b9"/>
    <path id="Path_21" data-name="Path 21" d="M288.348,1822.007c.19-6.668-5.144-50.1-4.382-53.913s.953-13.145,1.524-15.431,1.334-4.381,1.334-4.381,1.714,1.333,2.857.571,7.621-8.572,9.335-11.811,4.572-9.335,5.906-11.621,1.9-1.714,2.1-3.62.191-3.238.381-5.715.381-9.906.191-10.668-5.334,1.524-6.478,4.382-2.476,6.477-1.9,8.382a15.444,15.444,0,0,1,.381,4.572s-4.573,7.049-6.1,8.954a38.519,38.519,0,0,1-4.954,4.572s-.952.571-1.333-.381a12.148,12.148,0,0,1-.381-6.1c.571-2.1-5.334-11.05-6.668-12.383s-5.334-4.763-5.525-7.811a15.328,15.328,0,0,1,1.9-7.62c.763-1.334,5.239-2.381,5.525-2.905a2.934,2.934,0,0,0-.333-2.477c-.477-.619-.667-.857-.572-1.286s-.1-.714-.285-.714-.715-1.429-.715-1.429.238,0,.238-.476-.286-.524-.238-.762l.1-.476s1.143-.858,1.191-1.191a1.354,1.354,0,0,0-.571-1c-.239-.143-2.62-1.715-3.049-1.9a2.3,2.3,0,0,1-1.047-1.191,6.914,6.914,0,0,0-.572-1.762c-.286-.429-1.619-1.619-2.1-2.143a22.744,22.744,0,0,0-2.906-2.572s.191-2.667-3.429-2.286-8.191-.381-11.049,3.048-5.81,6.953-5.048,10.573c.5,2.374,1.437,4.168,1.763,5.61a19.222,19.222,0,0,0-2.257.135s1.162.423,2.358.865a2.54,2.54,0,0,1-.042.431,11.93,11.93,0,0,0-2.861,1.337,7.171,7.171,0,0,1,2.435-.371c-.894,1.537-1.8,2.852-.92,5.138.952,2.476,1.905,3.429,4.381,4.191a4.732,4.732,0,0,0,6.127-2.8c.953-2.667.541-.728.541-.728s-4,7.62-4.953,12.382-1.333,7.43-1.333,7.43-6.478,11.43-7.621,15.05,1.143,4.572,2.477,6.667,7.048,9.335,7.62,9.526-2.1,1.905-3.619,5.334-2.1,11.621-4.954,17.717-18.1,44.959-28.385,58.294-27.789,28.949-35.981,33.521,12.168,12.962,16.169,11.819,4.381-3.619,9.335-2.476,4,3.048,7.239,4.191,12.763,3.048,16.574,1.333-1.334-2.667,4.953-3.238,8.078,2.905,13.494,2.751c17.355-.5,3.08-3.513,8.223-4.847s7.43-.381,10.478-1.143-2.193,4.527,2.951,4.337,19.063.532,23.635-.992,12.4-8.608,12.4-9.751S288.157,1828.674,288.348,1822.007Zm-25.217-71.153s-3.588-6.47-4.4-7.829-1.2-2.175-.978-2.665,2.446-3.316,2.446-3.316c1.36,2.066,3.372,8.971,3.263,10.548S263.131,1750.854,263.131,1750.854Z" fill="#08b3b9"/>
  </g>
</svg>
